<svg xmlns="http://www.w3.org/2000/svg" xmlns:xlink="http://www.w3.org/1999/xlink" width="48" height="48" viewBox="0 0 48 48"><defs><clipPath id="b"><rect width="48" height="48"/></clipPath></defs><g id="a" clip-path="url(#b)"><rect width="48" height="48" fill="#fff"/><g transform="translate(-1187.776 -289.6)"><path d="M42.248,28.441A17.857,17.857,0,0,0,25.811,11.813V7.7a3.8,3.8,0,1,0-2.537,0v4.115A17.857,17.857,0,0,0,6.836,28.442l-.045,6.81c3.754,3.635,20.576,15.382,35.457-1.062V28.441ZM24.542,2.789a1.282,1.282,0,1,1-1.268,1.28,1.276,1.276,0,0,1,1.268-1.28ZM13.782,18.84a15.1,15.1,0,0,1,21.519,0,15.342,15.342,0,0,1,4.4,9.6H9.379a15.356,15.356,0,0,1,4.4-9.6ZM9.327,37.164c0-.925,0-6.159,0-6.159H39.756v5.778s-13.68,12.361-30.427.381Z" transform="translate(1187.529 293.573)"/><ellipse cx="2.544" cy="2.549" rx="2.544" ry="2.549" transform="translate(1209.523 295.087)" fill="none" stroke="#2165e2" stroke-width="2.3"/><path d="M28.22,31.949a1.282,1.282,0,1,0,1.268,1.283,1.275,1.275,0,0,0-1.268-1.283Z" transform="translate(1190.19 297.761)" fill="#aaa"/><path d="M18.139,20.916a1.282,1.282,0,1,0-1.267-1.281A1.274,1.274,0,0,0,18.139,20.916Z" transform="translate(1188.859 295.966)" fill="#2165e2"/><path d="M35.362,31.949a1.282,1.282,0,1,0,1.268,1.283,1.275,1.275,0,0,0-1.268-1.283Zm-17.751,0H12.54a1.282,1.282,0,0,0,0,2.564h5.073a1.282,1.282,0,0,0,0-2.564Z" transform="translate(1188.12 297.761)" fill="#aaa"/><path d="M27.1,20.916a1.282,1.282,0,1,0-1.269-1.281A1.274,1.274,0,0,0,27.1,20.916Z" transform="translate(1190.042 295.966)" fill="#2165e2"/><circle cx="22.64" cy="22.64" r="22.64" transform="translate(1189.176 291)" fill="none" stroke="#e7e9ec" stroke-width="2"/></g></g></svg>