<svg xmlns="http://www.w3.org/2000/svg" width="36" height="36" viewBox="0 0 36 36">
  <g fill="none" fill-rule="evenodd">
    <path fill="#2165E2" d="M19.75,2 C19.3354525,2 19,2.3358125 19,2.75 L19,16.25 C19,16.6641875 19.3354525,17 19.75,17 L33.25,17 C33.6645475,17 34,16.6641875 34,16.25 C34,8.39258 27.60742,2 19.75,2 Z"/>
    <path fill="#FA775E" d="M29.2631579,19.2631579 L16.7368421,19.2631579 L16.7368421,6.73684211 C16.7368421,6.32992105 16.4072747,6 16,6 C8.28042947,6 2,12.2804295 2,20 C2,27.7195705 8.28042947,34 16,34 C23.7195705,34 30,27.7195705 30,20 C30,19.5930789 29.6704326,19.2631579 29.2631579,19.2631579 Z"/>
  </g>
</svg>
