<svg xmlns="http://www.w3.org/2000/svg" width="36" height="36" viewBox="0 0 36 36">
  <g fill="#2165E2" fill-rule="evenodd" transform="translate(4)">
    <path d="M27,16.5588235 C27,16.2497941 26.2436364,16 25.93,16 C25.6163636,16 24.8636364,16.2497941 24.8636364,16.5588235 C24.8636364,22.7215294 19.7659091,27.7352941 13.5,27.7352941 C7.23409091,27.7352941 2.13636364,22.7215294 2.13636364,16.5588235 C2.13636364,16.2497941 1.38363636,16 1.07,16 C0.756363636,16 -9.09494702e-13,16.2497941 -9.09494702e-13,16.5588235 C-9.09494702e-13,22.7690294 5.70681818,28.9152353 11.7954545,29.7355882 L11.7954545,32.8823529 L4.97727273,32.8823529 C4.66363636,32.8823529 4.40909091,34.1321471 4.40909091,34.4411765 C4.40909091,34.7502059 4.66363636,35 4.97727273,35 L22.0227273,35 C22.3363636,35 22.5909091,34.7502059 22.5909091,34.4411765 C22.5909091,34.1321471 22.3363636,32.8823529 22.0227273,32.8823529 L15.2045455,32.8823529 L15.2045455,29.7355882 C21.2931818,28.9152353 27,22.7690294 27,16.5588235 Z"/>
    <path d="M18.6,15.3409091 C18.2872,15.3409091 18.0333333,15.0869318 18.0333333,14.7727273 C18.0333333,14.4585227 18.2872,14.2045455 18.6,14.2045455 L22,14.2045455 L22,10.7954545 L18.6,10.7954545 C18.2872,10.7954545 18.0333333,10.5414773 18.0333333,10.2272727 C18.0333333,9.91306818 18.2872,9.65909091 18.6,9.65909091 L22,9.65909091 L22,8.52272727 C22,3.82329545 18.1869,0 13.5,0 C8.8131,0 5,3.82329545 5,8.52272727 L5,9.65909091 L8.4,9.65909091 C8.7128,9.65909091 8.96666667,9.91306818 8.96666667,10.2272727 C8.96666667,10.5414773 8.7128,10.7954545 8.4,10.7954545 L5,10.7954545 L5,14.2045455 L8.4,14.2045455 C8.7128,14.2045455 8.96666667,14.4585227 8.96666667,14.7727273 C8.96666667,15.0869318 8.7128,15.3409091 8.4,15.3409091 L5,15.3409091 L5,16.4772727 C5,21.1767045 8.8131,25 13.5,25 C18.1869,25 22,21.1767045 22,16.4772727 L22,15.3409091 L18.6,15.3409091 Z"/>
  </g>
</svg>
