<svg xmlns="http://www.w3.org/2000/svg" width="36" height="36" viewBox="0 0 36 36">
  <path fill="#2165E2" d="M29.5601319,25.9395 L25.4996953,21.879 C26.4446806,20.304 26.9996719,18.4665 26.9996719,16.5 C26.9996719,10.71 22.2882455,6 16.4998359,6 C10.7114264,6 6,10.71 6,16.5 C6,22.29 10.7114264,27 16.4998359,27 C18.4678052,27 20.3037765,26.4465 21.8787519,25.5 L25.9391885,29.5605 C26.2316839,29.853 26.6156779,30 26.9996719,30 C27.3836659,30 27.7676599,29.853 28.0601553,29.5605 L29.5601319,28.0605 C30.1466227,27.474 30.1466227,26.526 29.5601319,25.9395 Z M16.5,24 C12.3585,24 9,20.6415 9,16.5 C9,12.3585 12.3585,9 16.5,9 C20.6415,9 24,12.3585 24,16.5 C24,20.6415 20.6415,24 16.5,24 Z"/>
</svg>
