<svg xmlns="http://www.w3.org/2000/svg" xmlns:xlink="http://www.w3.org/1999/xlink" width="80" height="80" viewBox="0 0 80 80">
  <defs>
    <path id="ic-touch-id-a" d="M3.12361138,50 C2.00051029,50 0.996580697,49.1851193 0.766663968,48.0044754 C-1.52528081,36.2565085 1.37696649,24.1937862 8.73069056,14.9116109 C9.57331732,13.8479117 11.0900455,13.6936442 12.1180501,14.5620209 C13.1460548,15.4328857 13.2977276,17.0004425 12.4551008,18.0628976 C6.01983991,26.1855785 3.47992212,36.7404605 5.4853738,47.019154 C5.74779185,48.3665064 4.90516509,49.6790241 3.60150112,49.9502363 C3.44140204,49.9838268 3.28130296,50 3.12361138,50 Z M17.5163923,12 C16.7521867,12 15.9967796,11.6684526 15.5028112,11.038993 C14.6694753,9.97708029 14.8957203,8.47070183 16.005578,7.67426729 C20.805744,4.23506352 26.24191,1.91303039 32.1619891,0.773035844 C42.9350247,-1.30273925 53.8563764,0.83430004 62.9112065,6.79374463 C64.0550009,7.54693386 64.3440918,9.04250099 63.5560049,10.1356464 C62.7691748,11.2251881 61.2017993,11.5026789 60.0605187,10.7518922 C52.1381709,5.53722799 42.5856017,3.66446562 33.1562104,5.48437261 C27.9739417,6.48141736 23.2190247,8.51274589 19.0221788,11.5194965 C18.5696887,11.8438364 18.0417836,12 17.5163923,12 Z M76.4626231,35 C75.2811652,35 74.225071,34.1669708 73.9832077,32.9600323 C72.7321034,26.7282109 69.8487383,20.9478786 65.647155,16.2434894 C64.7138919,15.1980695 64.8000003,13.5892422 65.8408989,12.6519253 C66.8817975,11.7133367 68.4836669,11.7972755 69.4181963,12.845239 C74.2238047,18.2236824 77.5199836,24.8319567 78.9496363,31.9527665 C79.2256897,33.3301262 78.3392797,34.6718755 76.9678768,34.949128 C76.7969263,34.9834666 76.6285084,35 76.4626231,35 Z M30.573638,79 C29.9699216,79 29.364918,78.7960813 28.8757661,78.3820268 C27.8073554,77.4755832 27.7018016,75.903917 28.6402009,74.8718894 C37.1488691,65.5177399 40.5703578,53.1632498 38.026768,40.9778631 C37.7461493,39.6312535 38.6472186,38.3194593 40.0413014,38.0483966 C41.4353843,37.7810642 42.7934244,38.6477187 43.0740431,39.9943283 C45.9381561,53.7140791 42.0867287,67.6240711 32.5083625,78.1544834 C31.9986147,78.7152598 31.2880572,79 30.573638,79 Z M20.5118647,75 C19.841365,75 19.172121,74.7322224 18.6774078,74.2029531 C17.7294168,73.1884154 17.7834083,71.5980931 18.7954359,70.6501855 C26.2764035,63.6427098 29.4141911,53.9461435 27.8697819,42.6077109 L27.8208128,42.2406167 C27.2181165,39.1354023 27.8471807,35.9799011 29.5975112,33.3436118 C31.3629091,30.6834362 34.0574638,28.8693373 37.1852064,28.2369798 C43.6441016,26.9345498 49.9535784,31.1322465 51.2569091,37.596624 C51.2732321,37.6783402 51.2857883,37.7613136 51.2945776,37.8417725 C51.5846252,39.3189494 51.8169144,40.8174982 51.9839115,42.2997038 C52.139608,43.6800785 51.1476704,44.9246786 49.7702582,45.0805679 C48.3941017,45.2402287 47.149785,44.2445486 46.9940885,42.864174 C46.8346251,41.4435698 46.608614,40.0078796 46.3235888,38.5948185 C46.309777,38.525674 46.2984765,38.4577867 46.2909428,38.3886423 C45.4484236,34.7579301 41.8561026,32.4221048 38.1809109,33.1676077 C36.3677995,33.5334447 34.8058116,34.5844404 33.7824836,36.1269902 C32.7591555,37.66954 32.3975377,39.5175826 32.7629223,41.3329387 C32.7767341,41.3995688 32.7867791,41.4649417 32.7943128,41.532829 L32.8470487,41.9288381 C34.6212359,54.9506238 30.9485554,66.1520247 22.2270379,74.3211272 C21.7423696,74.7749662 21.1271171,75 20.5118647,75 Z M41.5093289,80 C41.0207459,80 40.5271389,79.8586992 40.0938197,79.5623426 C38.94835,78.782062 38.6557026,77.2265025 39.439445,76.0860924 C44.491067,68.7371994 47.4451731,60.1828729 47.9802281,51.352197 C48.0643799,49.972951 49.2575775,48.9075678 50.6391748,49.0063533 C52.02454,49.088883 53.0783219,50.2743093 52.9954261,51.6523049 C52.4051073,61.3883064 49.1508177,70.8141964 43.5854928,78.9121087 C43.0981658,79.6198633 42.3106553,80 41.5093289,80 Z M13.5719619,69 C12.8276272,69 12.0897203,68.6833229 11.5819272,68.0727694 C10.6820407,66.9910003 10.8440203,65.3936809 11.9418818,64.5082517 C18.0585389,59.5718887 20.9330335,51.8069657 19.490644,44.1763138 C19.4559341,44.0762438 19.4289375,43.9749071 19.4070831,43.871037 C18.7193127,40.5091927 18.8401546,37.1397481 19.7657521,33.8564397 C20.14499,32.5086619 21.562954,31.7182358 22.9307815,32.0931815 C24.298609,32.4681272 25.099508,33.86404 24.7189846,35.2118178 C24.040213,37.6198306 23.92837,40.0924456 24.3873121,42.5625271 C24.4207365,42.6613304 24.4490186,42.7614004 24.4695874,42.8640038 C26.4287689,52.4377865 22.8767883,62.2319765 15.1994709,68.4274478 C14.7225311,68.8125271 14.1453182,69 13.5719619,69 Z M53.3307487,78 C52.962858,78 52.589962,77.9197808 52.235836,77.7468081 C50.9932666,77.1414038 50.4764678,75.6398006 51.0821109,74.3951495 C56.7393682,62.7646185 58.3773575,49.8969568 55.8196415,37.1859734 C55.7883583,37.0355624 52.1044465,21.2925437 36.6542905,24.4273597 C33.4571455,25.0728736 30.5640735,26.6384015 28.2854038,28.9534776 C27.3168754,29.9399231 25.7301905,29.9524574 24.7466461,28.9797995 C23.7618504,28.0083951 23.7493371,26.421559 24.7203682,25.4351135 C27.7010333,22.4043317 31.4850514,20.3549817 35.6644894,19.5101732 C52.6224966,16.0920831 59.612419,30.7696905 60.7235989,36.1832333 C63.5028,49.9922171 61.7234106,63.960386 55.5818891,76.5886434 C55.1489293,77.4823355 54.2579833,78 53.3307487,78 Z M7.52057917,62 C6.80642373,62 6.0960469,61.701187 5.59727167,61.1197466 C4.69796483,60.0701659 4.8289563,58.5001524 5.89074296,57.6099386 C9.07988151,54.9392972 10.5812453,50.7982466 9.84315875,46.7505752 C9.81922761,46.6733818 9.79907508,46.5961884 9.78396068,46.516505 C6.59482212,30.8786232 16.2705577,15.3179348 31.8119402,11.0897304 C33.1583814,10.7249295 34.5400895,11.5055786 34.9091328,12.8303163 C35.2781761,14.1550541 34.4897082,15.5258588 33.1495647,15.8919048 C20.2292711,19.406693 12.1569216,32.2842895 14.6722098,45.2839012 C14.6974004,45.3623396 14.7188125,45.4457583 14.7351865,45.5279319 C15.9393004,51.4282441 13.7968341,57.5140694 9.14663678,61.4098443 C8.67431176,61.8070166 8.0949264,62 7.52057917,62 Z M67.0871401,69 C66.8715604,69 66.6534594,68.9722698 66.4353583,68.9142885 C65.0901915,68.5550566 64.289647,67.1735894 64.6489465,65.8286756 C67.3581906,55.6706059 67.6821905,45.266746 65.6146426,34.8969186 C65.6007749,34.8477606 65.5894286,34.7986025 65.579343,34.748184 C63.2256163,23.077559 53.2862581,14.5618724 41.4104648,14.0387803 C40.0186521,13.9770176 38.9407537,12.8010058 39.002528,11.4094549 C39.0630416,10.017904 40.241796,8.94777107 41.632348,9.00197097 C55.7761404,9.62463959 67.6204162,19.7272489 70.4910299,33.5923396 C70.5048976,33.6452791 70.5175046,33.6982185 70.5275902,33.7511579 C72.7842431,44.9365048 72.4451148,56.1659678 69.5228124,67.1282127 C69.2202444,68.2550665 68.2015989,69 67.0871401,69 Z"/>
  </defs>
  <g fill="none" fill-rule="evenodd">
    <mask id="ic-touch-id-b" fill="#fff">
      <use xlink:href="#ic-touch-id-a"/>
    </mask>
    <use fill="#9BA1A1" xlink:href="#ic-touch-id-a"/>
    <g fill="#FA775E" fill-rule="nonzero" mask="url(#ic-touch-id-b)">
      <rect width="86" height="86"/>
    </g>
  </g>
</svg>
